<svg width="38" height="22" viewBox="0 0 38 22" fill="none" xmlns="http://www.w3.org/2000/svg">
<path d="M23.6632 15.3695C23.6633 14.8612 23.8654 14.3738 24.2248 14.0144C24.5842 13.655 25.0716 13.4528 25.5799 13.4528H25.7446L25.8392 13.4481C26.0585 13.4263 26.265 13.3294 26.4222 13.1721L27.2027 12.3915L27.3057 12.3026C27.5583 12.1134 27.8911 12.0594 28.1947 12.1651C29.3218 12.5577 30.5492 12.5557 31.6753 12.1604C32.8012 11.765 33.7597 10.9991 34.394 9.98823C35.0282 8.97729 35.301 7.78062 35.167 6.59476C35.0329 5.4092 34.5001 4.30426 33.6565 3.46052C32.8127 2.61671 31.7071 2.08412 30.5213 1.95002C29.3354 1.81598 28.1388 2.08788 27.1278 2.72211C26.117 3.35631 25.3511 4.31486 24.9557 5.44082C24.5603 6.56687 24.5594 7.79432 24.9519 8.92133C25.0727 9.26842 24.9844 9.65442 24.7245 9.91429L18.194 16.4439C18.0143 16.6235 17.9134 16.8674 17.9132 17.1214V19.2028H20.7882V18.2445C20.7883 17.7362 20.9904 17.2488 21.3498 16.8894C21.7092 16.53 22.1966 16.3278 22.7049 16.3278H23.6632V15.3695ZM25.5799 16.3278C25.5799 16.8361 25.3778 17.3235 25.0184 17.683C24.6589 18.0424 24.1716 18.2445 23.6632 18.2445H22.7049V19.2028C22.7049 19.7111 22.5028 20.1985 22.1434 20.558C21.7839 20.9174 21.2966 21.1195 20.7882 21.1195H17.9132C17.4049 21.1195 16.9175 20.9174 16.5581 20.558C16.1987 20.1985 15.9966 19.7111 15.9966 19.2028V17.1214C15.9967 16.3591 16.2997 15.6278 16.8389 15.0887L22.9642 8.96251C22.6152 7.59379 22.6767 6.14761 23.1476 4.8063C23.6867 3.27078 24.731 1.96325 26.1096 1.09838C27.4881 0.233656 29.1196 -0.137243 30.7366 0.0455199C32.3535 0.228351 33.861 0.953803 35.0116 2.10444C36.1623 3.2551 36.8886 4.76253 37.0715 6.3795C37.2543 7.99647 36.8824 9.62796 36.0177 11.0065C35.1528 12.385 33.8453 13.4294 32.3098 13.9685C30.9681 14.4395 29.5217 14.5003 28.1526 14.151L27.7773 14.5272C27.2383 15.0664 26.507 15.3693 25.7446 15.3695H25.5799V16.3278Z" fill="#195ECD"/>
<path d="M30.8507 6.74465C31.1154 6.74465 31.3299 6.53012 31.3299 6.26548C31.3299 6.00085 31.1154 5.78632 30.8507 5.78632C30.5861 5.78632 30.3716 6.00085 30.3716 6.26548C30.3716 6.53012 30.5861 6.74465 30.8507 6.74465Z" fill="#195ECD"/>
<path d="M30.8507 5.78632C30.5861 5.78632 30.3716 6.00085 30.3716 6.26548C30.3716 6.53012 30.5861 6.74465 30.8507 6.74465C31.1154 6.74465 31.3299 6.53012 31.3299 6.26548C31.3299 6.00085 31.1154 5.78632 30.8507 5.78632ZM32.2882 6.26548C32.2882 7.05939 31.6447 7.70298 30.8507 7.70298C30.0568 7.70298 29.4132 7.05939 29.4132 6.26548C29.4132 5.47157 30.0568 4.82798 30.8507 4.82798C31.6447 4.82798 32.2882 5.47157 32.2882 6.26548Z" fill="#195ECD"/>
<path fill-rule="evenodd" clip-rule="evenodd" d="M15.4522 0.771733C15.8272 0.381005 16.3359 0.161434 16.8662 0.161316H19.0382C19.3035 0.161316 19.5578 0.271063 19.7454 0.466413C19.9329 0.661763 20.0382 0.926715 20.0382 1.20298V4.32798C20.0382 4.60425 19.9329 4.8692 19.7454 5.06455C19.5578 5.2599 19.3035 5.36965 19.0382 5.36965H18.0382C17.773 5.36965 17.5187 5.4794 17.3311 5.67475C17.1436 5.8701 17.0382 6.13505 17.0382 6.41132L17.0382 7.45298C17.0382 7.72925 16.9329 7.9942 16.7454 8.18955C16.5578 8.3849 16.3035 8.49465 16.0382 8.49465L15.0382 8.49465C14.773 8.49465 14.5187 8.6044 14.3311 8.79975C14.1436 8.9951 14.0382 9.26005 14.0382 9.53632V9.71548C14.0381 10.268 13.8273 10.7978 13.4522 11.1884L12.6382 12.0363C13.1224 13.4841 13.1205 15.0601 12.633 16.5066C12.1455 17.9531 11.2011 19.1845 9.95437 19.9992C8.70766 20.8139 7.23242 21.1638 5.76999 20.9916C4.30755 20.8195 2.9445 20.1354 1.90382 19.0513C0.863135 17.9673 0.20643 16.5475 0.0411355 15.0241C-0.124159 13.5007 0.211742 11.964 0.993887 10.6654C1.77603 9.3667 2.95812 8.38298 4.34677 7.87512C5.73541 7.36726 7.24841 7.36533 8.63825 7.86965L15.4522 0.771733ZM7.03142 15.2535C7.03142 16.082 6.35985 16.7535 5.53142 16.7535C4.703 16.7535 4.03142 16.082 4.03142 15.2535C4.03142 14.4251 4.703 13.7535 5.53142 13.7535C6.35985 13.7535 7.03142 14.4251 7.03142 15.2535Z" fill="#195ECD"/>
</svg>
